<?xml version="1.0" encoding="utf-8"?>
<!-- Generator: Adobe Illustrator 26.2.1, SVG Export Plug-In . SVG Version: 6.00 Build 0)  -->
<svg version="1.1" id="Layer_1" xmlns="http://www.w3.org/2000/svg" xmlns:xlink="http://www.w3.org/1999/xlink" x="0px" y="0px"
	 viewBox="0 0 512 512" style="enable-background:new 0 0 512 512;" xml:space="preserve">
<style type="text/css">
	.st0{fill:url(#SVGID_1_);}
</style>
<g transform="translate(0,0)">
	
		<linearGradient id="SVGID_1_" gradientUnits="userSpaceOnUse" x1="-700.9505" y1="796.4003" x2="-700.9505" y2="795.4003" gradientTransform="matrix(-453.691 0 0 471.8903 -317758.9688 -375321.625)">
		<stop  offset="0" style="stop-color:#000000"/>
		<stop  offset="1" style="stop-color:#0F1A04;stop-opacity:0.66"/>
	</linearGradient>
	<path class="st0" d="M281.1,491.9l13.8-11.6l-6-7.2c3.2-0.4,6.4-1.1,9.5-2.1c10-3.1,18.4-8.7,24.1-15.8s8.9-16.6,6.2-25.8
		c-0.4-1.4-1-2.8-1.6-4c1.3-2.9,2-6,2-9.3c0-10-4.4-22.1-16.1-29.6c-0.1-0.1-0.2-0.1-0.3-0.2c2.8-2.6,5.4-5.5,7.6-8.6l40.7,13.6
		l30.6,91.7l17.1-5.7L375.1,377l-47.3-15.8c0.8-3.1,1.2-6.2,1.2-9.1v-0.6l-4.6-32.5c-5.3,3.3-10.8,6.4-16.3,9.1
		c-0.2,0.1-0.3,0.2-0.5,0.2l2.6,18.2c-20.5,8.8-37.3,13.1-54.1,13.1c-16.8-0.1-33.7-4.5-54.1-13.1l2.6-18.2
		c-0.2-0.1-0.3-0.2-0.5-0.2c-5.6-2.8-11-5.8-16.3-9.1l-4.6,32.5v0.6c0,2.9,0.4,6,1.2,9.1L136.9,377l-33.4,100.3l17.1,5.7l30.6-91.7
		l40.7-13.6c2.5,3.5,5.3,6.6,8.5,9.4c-11.4,7.3-17.3,18.4-17.3,29c0,3.3,0.8,6.4,2,9.3c-0.7,1.3-1.2,2.7-1.6,4
		c-2.7,9.2,0.4,18.6,6.2,25.8c5.7,7.2,14.1,12.7,24.1,15.8c3.1,1,6.3,1.7,9.5,2.1l-6,7.2l13.8,11.6l21.1-25.1c1.4-1.1,2.8-2.3,4-3.6
		c1.2,1.3,2.5,2.5,4,3.6L281.1,491.9z M283.4,455.5c-3.1,0.1-5.9-0.3-8.2-1c-4.6-1.4-6.7-3.6-7.4-6c-0.7-2.3-0.1-5.4,2.9-9.2
		c3-3.8,8.5-7.7,15.3-9.8c6.8-2.1,13.4-2,18-0.6c4.6,1.4,6.7,3.6,7.4,6c0.7,2.3,0.1,5.4-2.9,9.2c-3,3.8-8.5,7.7-15.3,9.8
		C289.8,454.9,286.5,455.4,283.4,455.5L283.4,455.5z M228.6,455.5c-3.1-0.1-6.4-0.6-9.8-1.6c-6.8-2.1-12.2-6-15.3-9.8
		c-3-3.8-3.6-6.9-2.9-9.2c0.7-2.3,2.8-4.5,7.4-6c4.6-1.4,11.2-1.5,18,0.6c6.8,2.1,12.2,6,15.3,9.8c3,3.8,3.6,6.9,2.9,9.2
		c-0.7,2.3-2.8,4.5-7.4,6C234.5,455.2,231.7,455.5,228.6,455.5z M256,429.1c-0.3-0.4-0.5-0.7-0.8-1c-5.7-7.2-14.1-12.7-24.1-15.8
		c-10-3.1-19.9-3.3-28.6-0.7c-0.3,0.1-0.7,0.2-1,0.3c1-3.4,3.5-6.7,9.1-10.1c2.1-1.2,4.6-2.4,7.6-3.5c10.2,4.4,22.7,7.1,37.8,7.1
		c15.7,0,28.6-2.9,38.9-7.6c3.4,1.2,6.2,2.4,8.2,3.8c5.2,3.4,7,6.5,7.6,10.4c-0.4-0.2-0.9-0.3-1.3-0.4c-8.6-2.7-18.6-2.5-28.6,0.7
		c-10,3.1-18.4,8.7-24.1,15.8C256.5,428.4,256.3,428.8,256,429.1L256,429.1z M256,387.4c-27.8,0-42.3-9.8-49.3-19.7
		c17.3,6.1,33.3,9.3,49.3,9.3c15.9,0,31.9-3,49.2-9.2C298.1,377.7,283.6,387.4,256,387.4L256,387.4z M477.2,328.7l5.7-17.1
		L439.1,297l-17.3-51.9l-27.7,7.9c-6.3,8.5-13,16.7-20.2,24.5l36.3-10.4l14.7,44.1L477.2,328.7z M34.8,328.7l52.3-17.4l14.7-44.1
		l36.3,10.4c-7.2-7.8-13.9-16-20.2-24.5l-27.7-7.9L72.9,297l-43.7,14.6L34.8,328.7z M298.2,312.8c0.3,0,0.7-0.2,1.8-0.7
		C360.8,281.7,404,215.6,427.5,153c11.7-31.3,18.6-61.6,20.5-85.6c1.9-23.9-2.6-41.2-6.4-44.9c-1.8-1.8-4.4-2.8-9.7-2.4
		c-5.3,0.4-12.7,2.6-21.1,6.6c-16.7,8-37.2,22.9-56.7,41.3c-39,36.8-73.2,88.6-73.2,124.1c0,16,0,51.7,3.9,80.8
		c1.9,14.5,5.1,27.5,8.6,34.3c1.8,3.4,3.5,5,4.1,5.3C297.9,312.7,297.9,312.9,298.2,312.8L298.2,312.8z M213.8,312.8
		c0.3,0,0.3-0.1,0.6-0.3c0.6-0.3,2.3-1.9,4.1-5.3c3.5-6.8,6.6-19.8,8.6-34.3c3.9-29.1,3.9-64.8,3.9-80.8
		c0-35.5-34.2-87.2-73.2-124.1c-19.5-18.4-40-33.3-56.7-41.3c-8.4-4-15.8-6.2-21.1-6.6c-5.3-0.4-7.9,0.6-9.7,2.4
		c-3.8,3.8-8.3,21-6.4,44.9c1.9,23.9,8.7,54.3,20.5,85.6C108,215.6,151.2,281.7,212,312.1C213.1,312.6,213.5,312.8,213.8,312.8z
		 M256,249.1c2.8,0,5.7-0.2,8.5-0.5c-0.4-6.1-0.7-12.2-0.9-18c-2.5,0.3-5.1,0.5-7.6,0.5c-2.5,0-5-0.3-7.6-0.7
		c-0.2,5.8-0.5,11.9-0.9,18.1C250.3,248.9,253.2,249.1,256,249.1L256,249.1z M289.7,116.6c3.4-5.3,7.1-10.6,11-15.8
		c-4.6-6.4-9.7-12.2-15.3-17c-8.5-7.4-18.4-12.7-29.4-12.7c-11,0-20.9,5.3-29.4,12.7c-5.5,4.8-10.6,10.6-15.3,17
		c3.9,5.2,7.6,10.5,11,15.8c5-7.7,10.6-14.4,16.1-19.2c6.5-5.6,12.6-8.3,17.6-8.3c5,0,11.1,2.7,17.6,8.3
		C279.1,102.2,284.7,109,289.7,116.6L289.7,116.6z"/>
</g>
</svg>
